<mxfile host="app.diagrams.net" modified="2021-08-11T11:50:05.726Z" agent="5.0 (Windows NT 10.0; Win64; x64) AppleWebKit/537.36 (KHTML, like Gecko) Chrome/92.0.4515.131 Safari/537.36" etag="fpfZCg0D0Ub23BpUnPj2" version="14.9.6" type="github">
  <diagram id="C5RBs43oDa-KdzZeNtuy" name="Page-1">
    <mxGraphModel dx="1422" dy="762" grid="1" gridSize="10" guides="1" tooltips="1" connect="1" arrows="1" fold="1" page="1" pageScale="1" pageWidth="1169" pageHeight="827" math="0" shadow="0">
      <root>
        <mxCell id="WIyWlLk6GJQsqaUBKTNV-0" />
        <mxCell id="WIyWlLk6GJQsqaUBKTNV-1" parent="WIyWlLk6GJQsqaUBKTNV-0" />
        <mxCell id="-yL5CF8-azmC5spdNuwF-0" value="&lt;b&gt;&lt;font style=&quot;font-size: 22px&quot;&gt;ACCESSOIRES&lt;/font&gt;&lt;/b&gt;" style="rounded=0;whiteSpace=wrap;html=1;fillColor=#d5e8d4;strokeColor=#82b366;sketch=1;" vertex="1" parent="WIyWlLk6GJQsqaUBKTNV-1">
          <mxGeometry x="430" y="89" width="260" height="60" as="geometry" />
        </mxCell>
        <mxCell id="-yL5CF8-azmC5spdNuwF-2" value="" style="endArrow=none;html=1;" edge="1" parent="WIyWlLk6GJQsqaUBKTNV-1">
          <mxGeometry width="50" height="50" relative="1" as="geometry">
            <mxPoint x="210" y="219" as="sourcePoint" />
            <mxPoint x="940" y="219" as="targetPoint" />
          </mxGeometry>
        </mxCell>
        <mxCell id="-yL5CF8-azmC5spdNuwF-4" value="" style="endArrow=classic;html=1;" edge="1" parent="WIyWlLk6GJQsqaUBKTNV-1">
          <mxGeometry width="50" height="50" relative="1" as="geometry">
            <mxPoint x="209.65999999999997" y="219" as="sourcePoint" />
            <mxPoint x="209.65999999999997" y="289" as="targetPoint" />
          </mxGeometry>
        </mxCell>
        <mxCell id="-yL5CF8-azmC5spdNuwF-5" value="" style="endArrow=classic;html=1;" edge="1" parent="WIyWlLk6GJQsqaUBKTNV-1">
          <mxGeometry width="50" height="50" relative="1" as="geometry">
            <mxPoint x="699.66" y="219" as="sourcePoint" />
            <mxPoint x="699.66" y="289" as="targetPoint" />
          </mxGeometry>
        </mxCell>
        <mxCell id="-yL5CF8-azmC5spdNuwF-6" value="" style="endArrow=classic;html=1;" edge="1" parent="WIyWlLk6GJQsqaUBKTNV-1">
          <mxGeometry width="50" height="50" relative="1" as="geometry">
            <mxPoint x="460" y="219" as="sourcePoint" />
            <mxPoint x="460" y="289" as="targetPoint" />
          </mxGeometry>
        </mxCell>
        <mxCell id="-yL5CF8-azmC5spdNuwF-7" value="" style="endArrow=classic;html=1;" edge="1" parent="WIyWlLk6GJQsqaUBKTNV-1">
          <mxGeometry width="50" height="50" relative="1" as="geometry">
            <mxPoint x="939.66" y="219" as="sourcePoint" />
            <mxPoint x="939.66" y="289" as="targetPoint" />
          </mxGeometry>
        </mxCell>
        <mxCell id="-yL5CF8-azmC5spdNuwF-8" value="&lt;b&gt;&lt;font style=&quot;font-size: 20px&quot;&gt;SCOOTER&lt;/font&gt;&lt;/b&gt;" style="rounded=0;whiteSpace=wrap;html=1;fillColor=#b1ddf0;strokeColor=#10739e;glass=0;shadow=0;sketch=1;" vertex="1" parent="WIyWlLk6GJQsqaUBKTNV-1">
          <mxGeometry x="110" y="289" width="200" height="60" as="geometry" />
        </mxCell>
        <mxCell id="-yL5CF8-azmC5spdNuwF-12" value="" style="endArrow=classic;html=1;" edge="1" parent="WIyWlLk6GJQsqaUBKTNV-1">
          <mxGeometry width="50" height="50" relative="1" as="geometry">
            <mxPoint x="559.6600000000001" y="149" as="sourcePoint" />
            <mxPoint x="559.6600000000001" y="219" as="targetPoint" />
          </mxGeometry>
        </mxCell>
        <mxCell id="-yL5CF8-azmC5spdNuwF-13" value="" style="endArrow=none;dashed=1;html=1;" edge="1" parent="WIyWlLk6GJQsqaUBKTNV-1">
          <mxGeometry width="50" height="50" relative="1" as="geometry">
            <mxPoint x="209.65999999999997" y="419" as="sourcePoint" />
            <mxPoint x="209.65999999999997" y="349" as="targetPoint" />
          </mxGeometry>
        </mxCell>
        <mxCell id="-yL5CF8-azmC5spdNuwF-14" value="&lt;font style=&quot;font-size: 15px&quot;&gt;SCOOTER 1&lt;br&gt;SCOOTER 2&lt;/font&gt;" style="rounded=0;whiteSpace=wrap;html=1;fillColor=#b0e3e6;strokeColor=#0e8088;sketch=1;" vertex="1" parent="WIyWlLk6GJQsqaUBKTNV-1">
          <mxGeometry x="110" y="412" width="200" height="60" as="geometry" />
        </mxCell>
        <mxCell id="-yL5CF8-azmC5spdNuwF-16" value="" style="endArrow=none;dashed=1;html=1;entryX=0.5;entryY=1;entryDx=0;entryDy=0;" edge="1" parent="WIyWlLk6GJQsqaUBKTNV-1" target="-yL5CF8-azmC5spdNuwF-49">
          <mxGeometry width="50" height="50" relative="1" as="geometry">
            <mxPoint x="460" y="409" as="sourcePoint" />
            <mxPoint x="459.6600000000001" y="329" as="targetPoint" />
          </mxGeometry>
        </mxCell>
        <mxCell id="-yL5CF8-azmC5spdNuwF-18" value="" style="endArrow=none;dashed=1;html=1;entryX=0.5;entryY=1;entryDx=0;entryDy=0;" edge="1" parent="WIyWlLk6GJQsqaUBKTNV-1" target="-yL5CF8-azmC5spdNuwF-50">
          <mxGeometry width="50" height="50" relative="1" as="geometry">
            <mxPoint x="699.6600000000001" y="412.0000000000001" as="sourcePoint" />
            <mxPoint x="700" y="359" as="targetPoint" />
          </mxGeometry>
        </mxCell>
        <mxCell id="-yL5CF8-azmC5spdNuwF-20" value="" style="endArrow=none;dashed=1;html=1;entryX=0.5;entryY=1;entryDx=0;entryDy=0;" edge="1" parent="WIyWlLk6GJQsqaUBKTNV-1" target="-yL5CF8-azmC5spdNuwF-51">
          <mxGeometry width="50" height="50" relative="1" as="geometry">
            <mxPoint x="939.6599999999999" y="412.0000000000001" as="sourcePoint" />
            <mxPoint x="939.6599999999999" y="342" as="targetPoint" />
          </mxGeometry>
        </mxCell>
        <mxCell id="-yL5CF8-azmC5spdNuwF-24" value="" style="endArrow=none;dashed=1;html=1;" edge="1" parent="WIyWlLk6GJQsqaUBKTNV-1">
          <mxGeometry width="50" height="50" relative="1" as="geometry">
            <mxPoint x="209.31000000000006" y="542.0000000000001" as="sourcePoint" />
            <mxPoint x="209.31000000000006" y="472" as="targetPoint" />
          </mxGeometry>
        </mxCell>
        <mxCell id="-yL5CF8-azmC5spdNuwF-62" value="" style="edgeStyle=orthogonalEdgeStyle;rounded=0;orthogonalLoop=1;jettySize=auto;html=1;" edge="1" parent="WIyWlLk6GJQsqaUBKTNV-1" source="-yL5CF8-azmC5spdNuwF-25" target="-yL5CF8-azmC5spdNuwF-34">
          <mxGeometry relative="1" as="geometry" />
        </mxCell>
        <mxCell id="-yL5CF8-azmC5spdNuwF-25" value="&lt;font style=&quot;font-size: 15px&quot;&gt;ARTICLE 1&lt;br&gt;ARTICLE 2&lt;br&gt;ARTICLE 3&lt;/font&gt;" style="rounded=0;whiteSpace=wrap;html=1;fillColor=#fad9d5;strokeColor=#ae4132;sketch=1;" vertex="1" parent="WIyWlLk6GJQsqaUBKTNV-1">
          <mxGeometry x="110" y="539" width="200" height="60" as="geometry" />
        </mxCell>
        <mxCell id="-yL5CF8-azmC5spdNuwF-27" value="&lt;font style=&quot;font-size: 15px&quot;&gt;ARTICLE 1&lt;br&gt;ARTICLE 2&lt;br&gt;ARTICLE 3&lt;/font&gt;" style="rounded=0;whiteSpace=wrap;html=1;fillColor=#fad9d5;strokeColor=#ae4132;sketch=1;" vertex="1" parent="WIyWlLk6GJQsqaUBKTNV-1">
          <mxGeometry x="360" y="539" width="200" height="60" as="geometry" />
        </mxCell>
        <mxCell id="-yL5CF8-azmC5spdNuwF-29" value="&lt;font style=&quot;font-size: 15px&quot;&gt;ARTICLE 1&lt;br&gt;ARTICLE 2&lt;br&gt;ARTICLE 3&lt;/font&gt;" style="rounded=0;whiteSpace=wrap;html=1;fillColor=#fad9d5;strokeColor=#ae4132;sketch=1;" vertex="1" parent="WIyWlLk6GJQsqaUBKTNV-1">
          <mxGeometry x="600" y="539" width="200" height="60" as="geometry" />
        </mxCell>
        <mxCell id="-yL5CF8-azmC5spdNuwF-31" value="&lt;font style=&quot;font-size: 15px&quot;&gt;ARTICLE 1&lt;br&gt;ARTICLE 2&lt;br&gt;ARTICLE 3&lt;/font&gt;" style="rounded=0;whiteSpace=wrap;html=1;fillColor=#fad9d5;strokeColor=#ae4132;sketch=1;" vertex="1" parent="WIyWlLk6GJQsqaUBKTNV-1">
          <mxGeometry x="840" y="539" width="200" height="60" as="geometry" />
        </mxCell>
        <mxCell id="-yL5CF8-azmC5spdNuwF-34" value="&lt;font style=&quot;font-size: 15px&quot;&gt;REFERENCE 1&lt;br&gt;REFERENCE 2&lt;br&gt;REFERENCE 3&lt;/font&gt;" style="rounded=0;whiteSpace=wrap;html=1;strokeColor=#9673a6;fillColor=#e1d5e7;sketch=1;" vertex="1" parent="WIyWlLk6GJQsqaUBKTNV-1">
          <mxGeometry x="110" y="679" width="200" height="60" as="geometry" />
        </mxCell>
        <mxCell id="-yL5CF8-azmC5spdNuwF-35" value="" style="shape=partialRectangle;whiteSpace=wrap;html=1;bottom=1;right=1;left=1;top=0;fillColor=none;routingCenterX=-0.5;direction=south;dashed=1;" vertex="1" parent="WIyWlLk6GJQsqaUBKTNV-1">
          <mxGeometry x="90" y="550" width="20" height="140" as="geometry" />
        </mxCell>
        <mxCell id="-yL5CF8-azmC5spdNuwF-49" value="&lt;b style=&quot;font-size: 20px&quot;&gt;QUAD&lt;/b&gt;" style="rounded=0;whiteSpace=wrap;html=1;fillColor=#b1ddf0;strokeColor=#10739e;glass=0;shadow=0;sketch=1;" vertex="1" parent="WIyWlLk6GJQsqaUBKTNV-1">
          <mxGeometry x="360" y="289" width="200" height="60" as="geometry" />
        </mxCell>
        <mxCell id="-yL5CF8-azmC5spdNuwF-50" value="&lt;b style=&quot;font-size: 20px&quot;&gt;S.S.V&lt;/b&gt;" style="rounded=0;whiteSpace=wrap;html=1;fillColor=#b1ddf0;strokeColor=#10739e;glass=0;shadow=0;sketch=1;" vertex="1" parent="WIyWlLk6GJQsqaUBKTNV-1">
          <mxGeometry x="600" y="289" width="200" height="60" as="geometry" />
        </mxCell>
        <mxCell id="-yL5CF8-azmC5spdNuwF-51" value="&lt;b style=&quot;font-size: 20px&quot;&gt;MOTO&lt;/b&gt;" style="rounded=0;whiteSpace=wrap;html=1;fillColor=#b1ddf0;strokeColor=#10739e;glass=0;shadow=0;sketch=1;" vertex="1" parent="WIyWlLk6GJQsqaUBKTNV-1">
          <mxGeometry x="840" y="289" width="200" height="60" as="geometry" />
        </mxCell>
        <mxCell id="-yL5CF8-azmC5spdNuwF-52" value="&lt;font style=&quot;font-size: 15px&quot;&gt;QUAD 1&lt;br&gt;QUAD 2&lt;/font&gt;" style="rounded=0;whiteSpace=wrap;html=1;fillColor=#b0e3e6;strokeColor=#0e8088;sketch=1;" vertex="1" parent="WIyWlLk6GJQsqaUBKTNV-1">
          <mxGeometry x="360" y="412" width="200" height="60" as="geometry" />
        </mxCell>
        <mxCell id="-yL5CF8-azmC5spdNuwF-53" value="&lt;font style=&quot;font-size: 15px&quot;&gt;S.S.V 1&lt;br&gt;S.S.V 2&lt;/font&gt;" style="rounded=0;whiteSpace=wrap;html=1;fillColor=#b0e3e6;strokeColor=#0e8088;sketch=1;" vertex="1" parent="WIyWlLk6GJQsqaUBKTNV-1">
          <mxGeometry x="600" y="412" width="200" height="60" as="geometry" />
        </mxCell>
        <mxCell id="-yL5CF8-azmC5spdNuwF-54" value="&lt;font style=&quot;font-size: 15px&quot;&gt;MOTO 1&lt;br&gt;MOTO 2&lt;/font&gt;" style="rounded=0;whiteSpace=wrap;html=1;fillColor=#b0e3e6;strokeColor=#0e8088;sketch=1;" vertex="1" parent="WIyWlLk6GJQsqaUBKTNV-1">
          <mxGeometry x="840" y="412" width="200" height="60" as="geometry" />
        </mxCell>
        <mxCell id="-yL5CF8-azmC5spdNuwF-57" value="" style="endArrow=none;dashed=1;html=1;" edge="1" parent="WIyWlLk6GJQsqaUBKTNV-1">
          <mxGeometry width="50" height="50" relative="1" as="geometry">
            <mxPoint x="700" y="539" as="sourcePoint" />
            <mxPoint x="699.5799999999999" y="472" as="targetPoint" />
          </mxGeometry>
        </mxCell>
        <mxCell id="-yL5CF8-azmC5spdNuwF-59" value="" style="endArrow=none;dashed=1;html=1;" edge="1" parent="WIyWlLk6GJQsqaUBKTNV-1">
          <mxGeometry width="50" height="50" relative="1" as="geometry">
            <mxPoint x="460.18" y="539" as="sourcePoint" />
            <mxPoint x="459.75999999999993" y="472" as="targetPoint" />
          </mxGeometry>
        </mxCell>
        <mxCell id="-yL5CF8-azmC5spdNuwF-60" value="" style="endArrow=none;dashed=1;html=1;" edge="1" parent="WIyWlLk6GJQsqaUBKTNV-1">
          <mxGeometry width="50" height="50" relative="1" as="geometry">
            <mxPoint x="940.1800000000001" y="539" as="sourcePoint" />
            <mxPoint x="939.76" y="472" as="targetPoint" />
          </mxGeometry>
        </mxCell>
        <mxCell id="-yL5CF8-azmC5spdNuwF-63" value="" style="edgeStyle=orthogonalEdgeStyle;rounded=0;orthogonalLoop=1;jettySize=auto;html=1;" edge="1" parent="WIyWlLk6GJQsqaUBKTNV-1" target="-yL5CF8-azmC5spdNuwF-64">
          <mxGeometry relative="1" as="geometry">
            <mxPoint x="460" y="599" as="sourcePoint" />
          </mxGeometry>
        </mxCell>
        <mxCell id="-yL5CF8-azmC5spdNuwF-64" value="&lt;font style=&quot;font-size: 15px&quot;&gt;REFERENCE 1&lt;br&gt;REFERENCE 2&lt;br&gt;REFERENCE 3&lt;/font&gt;" style="rounded=0;whiteSpace=wrap;html=1;strokeColor=#9673a6;fillColor=#e1d5e7;sketch=1;" vertex="1" parent="WIyWlLk6GJQsqaUBKTNV-1">
          <mxGeometry x="360" y="679" width="200" height="60" as="geometry" />
        </mxCell>
        <mxCell id="-yL5CF8-azmC5spdNuwF-65" value="" style="shape=partialRectangle;whiteSpace=wrap;html=1;bottom=1;right=1;left=1;top=0;fillColor=none;routingCenterX=-0.5;direction=south;dashed=1;" vertex="1" parent="WIyWlLk6GJQsqaUBKTNV-1">
          <mxGeometry x="340" y="549" width="20" height="140" as="geometry" />
        </mxCell>
        <mxCell id="-yL5CF8-azmC5spdNuwF-66" value="" style="edgeStyle=orthogonalEdgeStyle;rounded=0;orthogonalLoop=1;jettySize=auto;html=1;" edge="1" parent="WIyWlLk6GJQsqaUBKTNV-1" target="-yL5CF8-azmC5spdNuwF-67">
          <mxGeometry relative="1" as="geometry">
            <mxPoint x="700" y="599" as="sourcePoint" />
          </mxGeometry>
        </mxCell>
        <mxCell id="-yL5CF8-azmC5spdNuwF-67" value="&lt;font style=&quot;font-size: 15px&quot;&gt;REFERENCE 1&lt;br&gt;REFERENCE 2&lt;br&gt;REFERENCE 3&lt;/font&gt;" style="rounded=0;whiteSpace=wrap;html=1;strokeColor=#9673a6;fillColor=#e1d5e7;sketch=1;" vertex="1" parent="WIyWlLk6GJQsqaUBKTNV-1">
          <mxGeometry x="600" y="679" width="200" height="60" as="geometry" />
        </mxCell>
        <mxCell id="-yL5CF8-azmC5spdNuwF-68" value="" style="shape=partialRectangle;whiteSpace=wrap;html=1;bottom=1;right=1;left=1;top=0;fillColor=none;routingCenterX=-0.5;direction=south;dashed=1;" vertex="1" parent="WIyWlLk6GJQsqaUBKTNV-1">
          <mxGeometry x="580" y="549" width="20" height="140" as="geometry" />
        </mxCell>
        <mxCell id="-yL5CF8-azmC5spdNuwF-69" value="" style="edgeStyle=orthogonalEdgeStyle;rounded=0;orthogonalLoop=1;jettySize=auto;html=1;" edge="1" parent="WIyWlLk6GJQsqaUBKTNV-1" target="-yL5CF8-azmC5spdNuwF-70">
          <mxGeometry relative="1" as="geometry">
            <mxPoint x="940" y="599" as="sourcePoint" />
          </mxGeometry>
        </mxCell>
        <mxCell id="-yL5CF8-azmC5spdNuwF-70" value="&lt;font style=&quot;font-size: 15px&quot;&gt;REFERENCE 1&lt;br&gt;REFERENCE 2&lt;br&gt;REFERENCE 3&lt;/font&gt;" style="rounded=0;whiteSpace=wrap;html=1;strokeColor=#9673a6;fillColor=#e1d5e7;sketch=1;" vertex="1" parent="WIyWlLk6GJQsqaUBKTNV-1">
          <mxGeometry x="840" y="679" width="200" height="60" as="geometry" />
        </mxCell>
        <mxCell id="-yL5CF8-azmC5spdNuwF-71" value="" style="shape=partialRectangle;whiteSpace=wrap;html=1;bottom=1;right=1;left=1;top=0;routingCenterX=-0.5;direction=south;dashed=1;" vertex="1" parent="WIyWlLk6GJQsqaUBKTNV-1">
          <mxGeometry x="820" y="549" width="20" height="140" as="geometry" />
        </mxCell>
      </root>
    </mxGraphModel>
  </diagram>
</mxfile>
